<svg xmlns="http://www.w3.org/2000/svg" width="760" height="501.811" viewBox="0 0 760 501.811"><path d="M1140,707.811c0-32.167-16.322-58.243-36.457-58.243-12.655,0-23.8,10.305-30.337,25.946a18.288,18.288,0,0,0-6.967-1.4c-6.094,0-11.729,3.123-16.324,8.408-5.892-19.5-18.387-32.955-32.85-32.955-13.522,0-25.316,11.771-31.61,29.24a19.915,19.915,0,0,0-12.477-4.692c-15.452,0-27.978,20.012-27.978,44.7a65.147,65.147,0,0,0,4.408,24.068h183.24C1137.26,733.125,1140,720.98,1140,707.811Z" transform="translate(-380 -242.757)" fill="#6c63ff"/><path d="M701.033,371.023c-18.7-61.95-55.281-114.8-99.479-123.412-11.686-2.277-23.887-1.364-34.73,5.691-14.233,9.261-24.722,27.954-35.323,45.2-22.447,36.5-47.565,68.915-74.859,96.6-13.471,13.661-27.919,26.407-43.913,29.9-32.067,7.008-63.785-26.489-78.409-70.762-9.135-27.656-13.357-60.127-20.742-88.893-8.505-.025-18.638-.02-29.54.057-30.134.213-54.662.895-54.662.895s29.155-59.157,54.552-37.24a260.55,260.55,0,0,0,24.429,18.52c-4.438-13.078-10.036-24.844-17.738-34.3-15.186-18.654-35.754-23.887-55.2-22.5A84.533,84.533,0,0,0,177.806,218.9c-29.557,32.579-41.762,89.924-52.209,143.358l25.251,19.39c10.831-14.344,26.669-28.532,41.267-15.934,25.4,21.917,54.572,36.469,54.572,36.469s-24.329-.337-54.463-.124c-5.061.036-9.958.085-14.613.142l280.342,215.28c92.465,1.995,162.184-5.665,250.047,0,4.582.3,14.889-36.5,14.924-46.182C723.167,503.051,719.728,432.972,701.033,371.023ZM611.25,389.591c-30.134.213-54.662.895-54.662.895s29.155-59.157,54.552-37.24,54.572,36.469,54.572,36.469-24.329-.337-54.463-.124Z" transform="translate(-60 -155.331)" fill="#f2f2f2"/><path d="M992,593.067c0-23.388-14.481-42.349-32.344-42.349-11.227,0-21.115,7.493-26.915,18.865a19.363,19.363,0,0,0-6.181-1.016,21.058,21.058,0,0,0-14.483,6.113c-5.228-14.179-16.313-23.962-29.143-23.962-12,0-22.46,8.558-28.043,21.26a20.106,20.106,0,0,0-11.07-3.412c-13.709,0-24.822,14.551-24.822,32.5a39.928,39.928,0,0,0,3.911,17.5H985.477a51.2,51.2,0,0,0,6.523-25.5Z" transform="translate(-351.664 -221.616)" fill="#6c63ff" opacity="0.3"/><path d="M760,589.237H82v-2H759.321Z" transform="translate(0 -87.426)" fill="#2f2e41"/><path d="M678,465.237H0v-2H677.321Z" transform="translate(0 -68.953)" fill="#2f2e41"/><path d="M483.63,436.467s6.285-46.094,16.761-33.522,0,31.427,0,31.427l-8.381,10.476-8.381-6.285Z" transform="translate(-188.06 -194.684)" fill="#ffb8b8"/><path d="M458.488,451.133s20.952-23.047,25.142-18.856,16.761,6.285,14.666,14.666S452.2,482.56,452.2,482.56Z" transform="translate(-181.416 -200.206)" fill="#6c63ff"/><path d="M458.488,451.133s20.952-23.047,25.142-18.856,16.761,6.285,14.666,14.666S452.2,482.56,452.2,482.56Z" transform="translate(-181.416 -200.206)" opacity="0.1"/><path d="M339.064,449.038V465.8s-2.1,37.713,10.476,35.618,6.285-33.522,6.285-33.522l-2.1-18.856Z" transform="translate(-144.084 -203.158)" fill="#ffb8b8"/><path d="M345.349,570.557s-18.856,29.332-25.142,31.427-39.808,20.952-44,39.808l-29.332,37.713,14.666,18.856s67.045-71.235,85.9-77.521,37.713-37.713,37.713-37.713Z" transform="translate(-123.501 -242.757)" fill="#ffb8b8"/><path d="M494.105,522.369s39.808,6.285,33.522,31.427-67.044,77.521-67.044,77.521l-2.1,12.571-23.047,4.19L424.965,637.6l2.1-6.285S452.2,608.27,454.3,599.889s25.142-41.9,35.618-44l-14.666-8.38Z" transform="translate(-179.579 -224.542)" fill="#ffb8b8"/><path d="M37.7,9S50.271-1.563,31.419.2,0,3.721,0,10.766s15.71,56.363,34.561,52.84S37.7,44.231,37.7,44.231s9.426-14.091,15.71-15.852,6.284-10.568,0-10.568S34.562,12.527,37.7,9Z" transform="translate(86.501 440.088) rotate(-16)" fill="#2f2e41"/><path d="M431.251,633.412s0-10.476-8.381,0-12.571,18.856-4.19,25.142,37.713,20.952,37.713,20.952,31.427,6.285,27.237-8.381c0,0-20.952-10.476-20.952-18.856s0-23.047-6.285-18.856S431.251,639.7,431.251,633.412Z" transform="translate(-164.692 -236.757)" fill="#2f2e41"/><path d="M391.443,476.275s-29.332,4.19-27.237,46.093c0,0-37.713,37.713-27.237,50.284s33.522,35.618,41.9,29.332,33.522-54.474,33.522-54.474,58.664,20.952,69.14,10.476,20.952-35.618,20.952-35.618l-52.379-27.237Z" transform="translate(-156.469 -215.99)" fill="#2f2e41"/><circle cx="25.142" cy="25.142" r="25.142" transform="translate(267.431 126.709)" fill="#ffb8b8"/><path d="M454.3,333.8s-14.666,23.047-18.856,25.142,29.332,23.047,29.332,23.047,0-27.237,10.476-33.522Z" transform="translate(-175.428 -184.164)" fill="#ffb8b8"/><path d="M452.2,356.851s-33.522-10.476-39.808,6.285-20.952,48.189-18.856,69.14,6.285,16.761,0,23.047-10.476,2.1-8.381,10.476,4.19,8.381,2.1,12.571,25.142,18.857,48.189,20.952l23.047,2.1s0-37.713,4.19-46.094,12.571-25.142,12.571-31.427V407.265a63.607,63.607,0,0,0-8.381-31.558h0S454.3,356.851,452.2,356.851Z" transform="translate(-164.993 -194.592)" fill="#6c63ff"/><path d="M427.06,365.232s-77.521,6.285-85.9,27.237-12.571,62.855-4.19,62.855,18.856,4.19,20.952,0S368.4,409.23,370.491,409.23s64.95-6.285,64.95-6.285S462.678,369.422,427.06,365.232Z" transform="translate(-150.143 -192.225)" fill="#6c63ff"/><path d="M474.164,325.476s6.672-11.595,15.012-1.524,21.907-8.436,19.824-12.385-9.438.178-22.042-3.943-36.885-12.514-40.951,14.867S451.625,347,451.625,347s4.439-24.263,8.451-17.294l4.012,6.969,3.48.857Z" transform="translate(-181.287 -179.021)" fill="#2f2e41"/><circle cx="30.674" cy="30.674" r="30.674" transform="translate(425.668 44.639)" fill="#2f2e41"/><path d="M701.5,253.349s1.587,28.572-1.587,28.572,19.841,13.492,19.841,13.492l14.286-7.937v-9.524S715,275.571,722.933,254.936,701.5,253.349,701.5,253.349Z" transform="translate(-255.756 -169.922)" fill="#9f616a"/><path d="M574.835,411.517l-2.381,23.81,7.937,2.381,6.349-6.349,2.381-19.842Z" transform="translate(-172.275 -63.886)" fill="#9f616a"/><path d="M689.124,425.01l3.968,15.079,11.111,7.143,11.906-6.349L702.616,418.66Z" transform="translate(-209.417 -65.271)" fill="#9f616a"/><circle cx="23.016" cy="23.016" r="23.016" transform="translate(432.28 64.287)" fill="#9f616a"/><path d="M695.154,328.747l-5.556-2.381s-9.524-5.556-10.318-16.667,7.937-25.4,7.937-25.4l12.7-3.968,14.92,12.143.16,19.6Z" transform="translate(-249.76 -175.534)" fill="#9f616a"/><path d="M689.6,285.889l-3.175-1.587s-15.873-.794-17.461,18.254-7.143,50.795-7.143,50.795-12.7,22.223-11.905,46.033l-6.349,20.635s-8.73,30.159,1.587,30.159,9.524-32.54,9.524-32.54,19.048-46.033,20.635-53.97,15.08-45.239,11.111-55.557S689.6,285.889,689.6,285.889Z" transform="translate(-240.14 -181.957)" fill="#9f616a"/><path d="M701.5,335.89v8.73s5.556,6.349,3.175,10.318-4.762,11.9-4.762,11.9L711.028,384.3l37.3,3.175,7.418-49.7Z" transform="translate(-259.941 -184.685)" fill="#9f616a"/><path d="M736.425,280.333l6.349-3.175s13.492-9.524,24.6-11.111l34.128-23.016,22.223-53.176s-.794-28.572,5.556-25.4,5.556,27.779,5.556,27.779-11.905,49.208-22.223,62.7S765,290.651,765,290.651s-10.318,11.9-9.524,17.461S736.425,280.333,736.425,280.333Z" transform="translate(-280.524 -155.331)" fill="#9f616a"/><path d="M707.059,366.843s-8.73-5.556-14.286,3.968-15.873,11.9-22.223,40.477-21.428,73.812-25.4,76.987-20.635,36.509-11.111,83.335h15.873l13.493-67.462s43.652-53.97,46.826-76.192l14.286,83.335s.794,31.747,12.7,46.827l12.7,30.159,16.667-7.937-19.048-76.192s9.524-76.986,3.175-98.415l-.912-28.094S723.726,378.748,707.059,366.843Z" transform="translate(-253.493 -205.429)" fill="#2f2e41"/><path d="M640.391,586.69h-9.524c-1.587,0-14.286,10.318-8.73,15.873s14.286,15.873,14.286,15.873,30.953,3.937,31.747-1.619-13.492-17.429-13.492-17.429l-3.968-12.7S642.772,577.959,640.391,586.69Z" transform="translate(-251.782 -222.991)" fill="#2f2e41"/><path d="M770.291,594.838s-16.038-.83-18.868-1.659-8.491,21.57,0,23.23,43.4,4.148,43.4,4.148,27.359-.83,25.472-7.467-38.68-19.911-38.68-19.911S776.895,584.883,770.291,594.838Z" transform="translate(-259.889 -223.175)" fill="#2f2e41"/><path d="M703.885,279.54l-3.968-2.381-4.762,3.968s14.286,9.524,11.111,18.254S689.6,326.366,689.6,326.366,701.5,339.859,701.5,344.621c0,0,30.953-11.111,53.969,0,0,0,0-15.873,3.175-19.048s4.762-14.286-3.175-23.81a174.006,174.006,0,0,1-15.08-22.223l-7.937-4.762-4.088,1.3s8.056,9.021.12,9.815S707.853,284.3,703.885,279.54Z" transform="translate(-259.803 -175.432)" fill="#6c63ff"/><path d="M733.728,178.347a16.767,16.767,0,0,1-10.4,5.448c-6.933.99-1.486,11.886-1.486,11.886s-1.981-3.962,1.981-7.429S733.728,182.8,733.728,178.347Z" transform="translate(-258.051 -155.331)" fill="#2f2e41"/><circle cx="8.549" cy="8.549" r="8.549" transform="translate(455.576 34.079)" fill="#2f2e41"/><path d="M730.34,206.376c-6.6-3.45-17.965-6.163-24-5.969l1.527-5.838c5.344,3.631,16.645,6.394,24,5.969Z" transform="translate(-256.144 -155.331)" fill="#6c63ff"/><path d="M716.7,206.89s-10.407,13.38-31.221,16.354-4.46,35.681-4.46,35.681-5.947-11.894,5.947-22.3S716.7,220.27,716.7,206.89Z" transform="translate(-249.528 -155.331)" fill="#2f2e41"/><path d="M717.49,206.1s5.947,20.814,14.867,23.787,4.46,34.194-10.407,37.167c0,0,12.637-17.1,5.2-30.477S715.26,212.786,717.49,206.1Z" transform="translate(-258.317 -155.331)" fill="#2f2e41"/><rect width="54.763" height="6.349" transform="translate(510.884 15.873)" fill="#2f2e41"/><ellipse cx="4.762" cy="19.048" rx="4.762" ry="19.048" transform="translate(555.735 0)" fill="#2f2e41"/><ellipse cx="4.762" cy="19.048" rx="4.762" ry="19.048" transform="translate(517.342 0)" fill="#2f2e41"/><rect width="54.763" height="6.349" transform="translate(529.992 376.467)" fill="#2f2e41"/><ellipse cx="4.762" cy="19.048" rx="4.762" ry="19.048" transform="translate(575.209 359.286)" fill="#2f2e41"/><ellipse cx="4.762" cy="19.048" rx="4.762" ry="19.048" transform="translate(556.817 359.286)" fill="#2f2e41"/><path d="M254,593.067c0-23.388-14.481-42.349-32.344-42.349-11.227,0-21.115,7.493-26.915,18.865a19.363,19.363,0,0,0-6.181-1.016,21.058,21.058,0,0,0-14.483,6.113c-5.228-14.179-16.313-23.962-29.143-23.962-12,0-22.46,8.558-28.043,21.26a20.107,20.107,0,0,0-11.07-3.412c-13.709,0-24.822,14.551-24.822,32.5a39.928,39.928,0,0,0,3.911,17.5H247.477a51.2,51.2,0,0,0,6.523-25.5Z" transform="translate(-60 -221.616)" fill="#6c63ff" opacity="0.3"/></svg>