<?xml version="1.0" encoding="UTF-8"?><svg xmlns="http://www.w3.org/2000/svg" id="Instagram_w_circle" data-name="Instagram w/circle" viewBox="0 0 19.19995 19.19995"><title>instagram-with-circle</title><path d="M13.898 7.051a1.656 1.656 0 0 0-.95-.949 2.766 2.766 0 0 0-.928-.172c-.527-.024-.685-.03-2.02-.03s-1.493.006-2.02.03a2.766 2.766 0 0 0-.929.172 1.656 1.656 0 0 0-.949.95 2.766 2.766 0 0 0-.172.928c-.024.527-.03.685-.03 2.02s.006 1.493.03 2.02a2.766 2.766 0 0 0 .172.929 1.656 1.656 0 0 0 .95.949 2.766 2.766 0 0 0 .928.172c.527.024.685.03 2.02.03s1.493-.006 2.02-.03a2.766 2.766 0 0 0 .929-.172 1.656 1.656 0 0 0 .949-.95 2.766 2.766 0 0 0 .172-.928c.024-.527.03-.685.03-2.02s-.006-1.493-.03-2.02a2.766 2.766 0 0 0-.172-.929zM10 12.568A2.568 2.568 0 1 1 12.568 10 2.568 2.568 0 0 1 10 12.568zm2.669-4.637a.6.6 0 1 1 .6-.6.6.6 0 0 1-.6.6z" transform="translate(-0.40002 -0.40002)"/><circle cx="9.59998" cy="9.59998" r="1.66669"/><path d="M10 .4a9.6 9.6 0 1 0 9.6 9.6A9.6 9.6 0 0 0 10 .4zm4.97 11.662a3.67 3.67 0 0 1-.233 1.213 2.556 2.556 0 0 1-1.462 1.462 3.67 3.67 0 0 1-1.213.233c-.534.024-.704.03-2.062.03s-1.528-.006-2.062-.03a3.67 3.67 0 0 1-1.213-.233 2.556 2.556 0 0 1-1.462-1.462 3.67 3.67 0 0 1-.233-1.213C5.006 11.528 5 11.358 5 10s.006-1.528.03-2.062a3.67 3.67 0 0 1 .233-1.213 2.556 2.556 0 0 1 1.462-1.462 3.67 3.67 0 0 1 1.213-.233C8.472 5.006 8.642 5 10 5s1.528.006 2.062.03a3.67 3.67 0 0 1 1.213.233 2.556 2.556 0 0 1 1.462 1.462 3.67 3.67 0 0 1 .233 1.213c.024.534.03.704.03 2.062s-.006 1.528-.03 2.062z" transform="translate(-0.40002 -0.40002)"/><metadata><rdf:RDF xmlns:rdf="http://www.w3.org/1999/02/22-rdf-syntax-ns#" xmlns:rdfs="http://www.w3.org/2000/01/rdf-schema#" xmlns:dc="http://purl.org/dc/elements/1.1/"><rdf:Description about="https://iconscout.com/legal#licenses" dc:title="instagram,with,circle" dc:description="instagram,with,circle" dc:publisher="Iconscout" dc:date="2017-09-14" dc:format="image/svg+xml" dc:language="en"><dc:creator><rdf:Bag><rdf:li>Daniel Bruce</rdf:li></rdf:Bag></dc:creator></rdf:Description></rdf:RDF></metadata></svg>