<svg id="Layer_1" enable-background="new 0 0 512 512" height="512" viewBox="0 0 512 512" width="512" xmlns="http://www.w3.org/2000/svg"><g><path d="m464.868 321.334h-48.201c-8.284 0-15 6.716-15 15v64.266c0 8.284 6.716 15 15 15h48.201c25.989 0 47.132-21.144 47.132-47.133s-21.143-47.133-47.132-47.133z" fill="#ffc5bb"/><circle cx="63.2" cy="159.6" fill="#ffc5bb" r="63.2"/><path d="m289.201 154.022-93.231-34.961c-11.674-4.375-23.91-6.594-36.37-6.594h-.016c-34.895 0-63.184 28.288-63.184 63.184v34.511l195.778 73.417c3.269 1.226 6.756-1.191 6.756-4.682v-110.83c0-6.253-3.879-11.85-9.733-14.045z" fill="#ff759d"/><path d="m143.533 160.667c-25.989 0-47.133 21.144-47.133 47.133v160.668c0 25.989 21.144 47.132 47.133 47.132s47.133-21.143 47.133-47.132v-160.669c0-25.989-21.144-47.132-47.133-47.132z" fill="#ffdcc8"/><path d="m289.2 154.022-49.267-18.475v128.44l52.245 19.592c3.269 1.226 6.756-1.191 6.756-4.682v-110.83c0-6.253-3.879-11.85-9.734-14.045z" fill="#ff4380"/><path d="m416.667 415.6h-48.2c-43.778 0-79.267-35.489-79.267-79.267v-182.311l22.049 7.952c42.521 10.621 72.218 48.651 72.218 92.484v66.876h33.2z" fill="#00a8be"/></g></svg>