<svg height="512pt" viewBox="-30 0 512 512.00043" width="512pt" xmlns="http://www.w3.org/2000/svg"><path d="m133.320312 512h-42.253906c-6.371094 0-11.566406-5.132812-11.625-11.515625l-.777344-71.445313-1.679687-155.371093c-.039063-3.457031.308594-6.832031.992187-10.082031 1.953126-9.351563 6.71875-17.664063 13.386719-24.015626 8.324219-7.960937 19.613281-12.839843 32.039063-12.839843h13.96875l-6.660156 52.421875v.011718l-19.027344 149.875-6.238282 49.128907c-.625 4.917969 2.085938 9.65625 6.648438 11.609375l24.234375 10.371094c5.753906 3.117187 3.535156 11.851562-3.007813 11.851562zm0 0" fill="#fedfc5"/><path d="m452.632812 212.082031-6.074218 11.375c-5.980469 7.179688-14.582032 11.660157-23.886719 12.4375l-119.816406 7.324219-58.339844 3.558594-7.957031 8.992187c-15.542969 20.40625-31.769532 23.382813-57.417969 23.382813h-48.429687l3.824218-30.144532 2.21875-17.46875.617188-4.808593h2.308594c24.265624 0 43.941406-19.679688 43.941406-43.949219l-21.21875-26.1875-71.359375-88.011719-8.84375-10.914062 22.039062-8.695313 5.347657 5.574219 79.167968 82.550781h.011719l51.902344 54.128906c9.195312 10.332032 22.355469 16.234376 36.171875 16.234376l25.308594.664062zm0 0" fill="#fedfc5"/><path d="m109.585938 54.546875.160156 4.507813c-.058594 4.308593-3.566406 7.765624-7.871094 7.765624h-5.257812c-2.035157 0-3.96875.632813-5.574219 1.757813l-8.84375-10.914063 22.039062-8.695312zm0 0" fill="#fecbaa"/><g fill="#fedfc5"><path d="m137.367188 226.730469-31.597657 46.179687c-7.289062-1.125-18.804687-4.539062-27.792969-9.328125-4.898437-2.617187-9.039062-5.625-11.359374-8.90625l-59.035157-83.269531c-9.714843-12.285156-10.132812-29.519531-1.023437-42.265625l44.636718-62.453125 46.9375-65.65625c1.390626-1.953125 4.476563-.9414062 4.4375 1.460938l1.667969 46.480468c-.0625 4.304688-3.570312 7.761719-7.875 7.761719h-5.257812c-3.800781 0-7.269531 2.21875-8.855469 5.6875l-10.675781 20.015625-27.351563 51.308594c-2.507812 5.449218-1.097656 11.894531 3.445313 15.800781 15.203125 13.082031 38.847656 33.425781 38.847656 33.425781 48.46875 41.703125 50.738281 43.664063 50.84375 43.746094zm0 0"/><path d="m142.878906 236.816406-8.34375 12.191406 2.21875-17.46875c5.542969 4.773438 6.066406 5.226563 6.117188 5.265626zm0 0"/><path d="m236.835938 150.621094 17.839843-17.84375c11.191407-11.191406 29.332031-11.191406 40.523438 0 11.183593 11.1875 11.183593 29.324218 0 40.511718l-17.84375 17.84375c-11.1875 11.191407-29.332031 11.191407-40.519531 0-11.183594-11.1875-11.183594-29.324218 0-40.511718zm0 0"/></g><path d="m295.191406 132.769531c-8.28125-8.28125-20.371094-10.425781-30.632812-6.441406 3.597656 1.394531 6.972656 3.539063 9.875 6.441406 11.1875 11.191407 11.1875 29.332031 0 40.523438l-17.839844 17.84375c-2.902344 2.90625-6.277344 5.050781-9.875 6.445312 10.261719 3.984375 22.351562 1.839844 30.632812-6.445312l17.839844-17.84375c11.1875-11.191407 11.1875-29.332031 0-40.523438zm0 0" fill="#fecbaa"/><path d="m137.367188 226.730469 4.144531 29.269531-10.800781 23.152344v.007812l-19.027344 149.878906h-33.023438l-1.675781-155.371093c-.039063-3.457031.308594-6.832031.992187-10.082031-2.636718-1.414063-5.050781-2.9375-7.085937-4.554688-1.75-1.390625-3.210937-2.832031-4.273437-4.355469l-59.035157-83.269531c-9.714843-12.285156-10.132812-29.519531-1.023437-42.265625l44.636718-62.453125 17.484376 13.847656 2.894531 1.902344-27.351563 51.308594c-2.507812 5.449218-1.097656 11.894531 3.445313 15.800781 15.203125 13.082031 38.847656 33.425781 38.847656 33.425781 48.46875 41.703125 50.738281 43.664063 50.84375 43.746094zm0 0" fill="#7f7ce8"/><path d="m302.855469 243.207031v.011719l-58.339844 3.558594-7.957031 8.992187c-15.542969 20.40625-31.769532 23.382813-57.417969 23.382813h-48.429687l6.65625-52.421875h2.3125c24.265624 0 43.941406-19.679688 43.941406-43.953125l-21.21875-26.183594.132812-.613281 26.21875-18.882813h.007813l51.90625 54.128906c9.195312 10.332032 22.355469 16.230469 36.167969 16.230469l25.3125.667969zm0 0" fill="#fd82ac"/><path d="m244.515625 246.777344-7.957031 8.992187c-15.542969 20.40625-31.769532 23.382813-57.417969 23.382813h-25.941406c12.824219 0 23.292969-.746094 32.496093-4.039063 9.203126-3.296875 17.148438-9.136719 24.921876-19.34375 5.089843-5.757812 12.261718-9.257812 19.929687-9.71875zm0 0" fill="#fd6096"/><path d="m124.832031 226.730469c-12.425781 0-23.714843 4.878906-32.039062 12.835937-6.664063 6.351563-12.863281 14.667969-14.816407 24.015625-2.636718-1.410156-5.050781-2.933593-7.085937-4.550781 2.371094-7.496094 6.613281-14.164062 12.179687-19.464844 8.324219-7.957031 19.613282-12.835937 32.035157-12.835937zm0 0" fill="#6666d3"/></svg>