<?xml version="1.0"?>
<svg xmlns="http://www.w3.org/2000/svg" viewBox="0 0 512 512" width="512" height="512"><g id="Filled_outline" data-name="Filled outline"><path d="M288,176H272a24,24,0,0,1-24-24V128l-16-16v-8h24a24,24,0,0,1,24,24v40Z" style="fill:#61311c"/><path d="M270.19,385.55A232.465,232.465,0,0,1,272,414.56V488H228.94a4.951,4.951,0,0,1-4.94-4.94,4.957,4.957,0,0,1,2.73-4.43L240,472l8-8-16-96-8-88-3.66-16-3.55-15.49A64.171,64.171,0,0,1,216,224l-6.58-19.73a27.771,27.771,0,0,1,6.71-28.4L224,168l-.36-24-11.56-1.6V130.15L208,126.06l6.21-8.16,1.46-7.07a16.293,16.293,0,0,1,5.93-9.75A24.755,24.755,0,0,1,226.5,98c9.17-4.5,25.44-2.11,31.14,8.75,4.42,8.41,1.93,19.93-4.1,33.23-.59,1.32-1.23,2.66-1.89,4.02L256,168v32l-4.8,24L248,240l9.59,9.59A49.3,49.3,0,0,1,267.58,264c.24.51.46,1.03.68,1.55a49.223,49.223,0,0,1-1.46,40.84L264,312l4,56Z" style="fill:#feb784"/><path d="M256,200l-4.8,24H216l-6.58-19.73a27.771,27.771,0,0,1,6.71-28.4l2.56-2.56C225.97,187.36,234.67,200,256,200Z" style="fill:#c378cb"/><path d="M270.19,385.55A232.465,232.465,0,0,1,272,414.56V416H240l-8-48-8-88-3.66-16h47.24c.24.51.46,1.03.68,1.55a49.223,49.223,0,0,1-1.46,40.84L264,312l4,56Z" style="fill:#bc4598"/><path d="M253.54,139.98c-16.69-5.02-26.62-24.17-31.94-38.9A24.755,24.755,0,0,1,226.5,98c9.17-4.5,25.44-2.11,31.14,8.75C262.06,115.16,259.57,126.68,253.54,139.98Z" style="fill:#6e3c26"/><path d="M256,118.33V200c-16.49,0-25.43-7.55-32-17.47V136l2.31-23.71,1.44-14.84L231,64l-5-19.67L231,24h24l.85,80v.01Z" style="fill:#fec093"/><path d="M293.657,170.343,288,164.687V128a31.789,31.789,0,0,0-9.375-22.626l-10.763,10.765a28.634,28.634,0,0,0-3.162-13.153c-.219-.411-.463-.8-.7-1.192V24a8,8,0,0,0-8-8H231a8,8,0,0,0-7.769,6.09l-5,20.333a8,8,0,0,0,.016,3.881L222.9,64.617l-2.694,27.71c-6.786,4.078-10.949,9.756-12.373,16.885l-1.092,5.29-5.109,6.713a8,8,0,0,0,.7,10.494l1.744,1.749V142.4a8,8,0,0,0,6.9,7.925l4.761.658.206,13.753-5.477,5.477A35.525,35.525,0,0,0,200,195.5c0,9.886,4.719,19.963,7.808,29.224a72.178,72.178,0,0,0,1.184,25.572l7.09,30.966,7.951,87.464q.027.3.076.59l15.323,91.939-4.17,4.171-12.126,6.057A12.894,12.894,0,0,0,216,483.06,12.95,12.95,0,0,0,228.94,496H272a8,8,0,0,0,8-8c0-39.13,1.335-77.746-3.524-116.683L260.6,373.3c1.441,11.549,2.959,23.055,3.3,34.7h-17.12l-6.837-41.021L231.97,279.3c-.054-.591-1.342-7.3-1.595-7.3h31.716A41.075,41.075,0,0,1,264,284.379a42.615,42.615,0,0,1-2.848,14.274c-1.566,4.233-5.464,9.255-5.131,13.917l3.172,44.416,15.959-1.141-1.467-20.535c-.579-8.108-2.59-16.463-.066-24.439C276.479,301.833,280,294.2,280,284.38c0-19.528-10.107-33.8-23.316-47.01-1.227-1.227,2.973-14.941,3.345-16.729A179.018,179.018,0,0,0,264,182.978,32.042,32.042,0,0,0,272,184h16a8,8,0,0,0,5.657-13.657ZM264,424v56H241.887l1.689-.844a8,8,0,0,0,2.081-1.5l8-8a8,8,0,0,0,2.234-6.972L249.444,424ZM238.753,62.029,234.246,44.3,237.271,32H248V191.16c-6.491-1.493-11.526-5.059-16-11.16V136.388l6.962-71.614A7.981,7.981,0,0,0,238.753,62.029ZM244.642,216H221.765l-4.753-14.253a19.727,19.727,0,0,1,.693-14.26c.257.381.513.768.769,1.127,7.4,10.474,16.422,16.5,27.932,18.562ZM224.59,246.73a56.238,56.238,0,0,1-1.41-12.5q0-1.114.045-2.23h18.216l-1.286,6.431a8,8,0,0,0,2.188,7.226l9.59,9.59c.246.246.478.5.717.753H226.712ZM272,168a15.946,15.946,0,0,1-8-2.159v-30.3a56.859,56.859,0,0,0,3.852-18.255A15.872,15.872,0,0,1,272,128Z"/></g></svg>
